<?xml version="1.0" encoding="UTF-8"?>
<svg version="1.1" xmlns="http://www.w3.org/2000/svg" width="344" height="107">
<path d="M0 0 C1.9375 1.0625 1.9375 1.0625 3.91015625 3.25390625 C7.73162909 7.14108577 12.57193411 9.468357 17.3125 12.0625 C20.0462045 13.57101481 22.77108639 15.08746284 25.47338867 16.65161133 C27.00408746 17.52805127 28.55926785 18.36461937 30.14575195 19.13549805 C32.23314827 20.2868825 33.51616099 21.14169447 34.9375 23.0625 C35.7746305 27.03696385 35.59948312 30.83677062 35.375 34.875 C35.34341797 35.94943359 35.31183594 37.02386719 35.27929688 38.13085938 C35.19695583 40.77753569 35.08203557 43.41861094 34.9375 46.0625 C33.0820296 45.14847517 31.22819121 44.23113711 29.375 43.3125 C28.34246094 42.80203125 27.30992188 42.2915625 26.24609375 41.765625 C22.74317446 39.96246938 19.34493969 38.03907284 15.9375 36.0625 C14.90109375 36.70058594 13.8646875 37.33867188 12.796875 37.99609375 C11.42724978 38.83100227 10.05744887 39.66562264 8.6875 40.5 C8.00558594 40.92087891 7.32367188 41.34175781 6.62109375 41.77539062 C5.95722656 42.17822266 5.29335937 42.58105469 4.609375 42.99609375 C4.0019043 43.36790771 3.39443359 43.73972168 2.76855469 44.12280273 C0.77837486 45.14416302 -0.84199809 45.76238037 -3.0625 46.0625 C-5.5461184 44.83663001 -7.79264717 43.59028916 -10.125 42.125 C-14.7380874 39.05888494 -14.7380874 39.05888494 -20.0625 38.0625 C-20.0625 37.4025 -20.0625 36.7425 -20.0625 36.0625 C-26.50035331 39.22094578 -32.82602839 42.52247384 -39.0625 46.0625 C-39.26746094 44.82693359 -39.26746094 44.82693359 -39.4765625 43.56640625 C-39.88822667 41.10465454 -40.36853544 38.65387894 -40.8984375 36.21484375 C-41.61445365 31.60892696 -41.99840408 27.40968997 -40.0625 23.0625 C-34.33236028 17.12046217 -26.36348319 13.68648821 -19.0625 10.0625 C-16.90249649 8.89876477 -14.76597215 7.69870586 -12.625 6.5 C-11.8103125 6.07460938 -10.995625 5.64921875 -10.15625 5.2109375 C-8.19153902 4.13327887 -6.43218766 2.94495569 -4.625 1.625 C-2.0625 0.0625 -2.0625 0.0625 0 0 Z " fill="#F15337" transform="translate(62.0625,13.9375)"/>
<path d="M0 0 C1.61797321 0.94292478 3.20123992 1.94724805 4.75 3 C9.4700025 5.88367017 13.39611385 7.7516248 19 7 C23.4270842 5.38480089 27.44252769 3.32221359 31.04296875 0.265625 C33 -1 33 -1 34.89282227 -0.70166016 C38.46176942 0.48674839 41.53301838 2.45332478 44.75 4.375 C45.44738281 4.77460937 46.14476563 5.17421875 46.86328125 5.5859375 C48.6301821 6.63708791 50.32280139 7.81094128 52 9 C52 9.99 52 10.98 52 12 C50.40209961 13.29931641 50.40209961 13.29931641 48.15234375 14.6015625 C47.32669922 15.08834473 46.50105469 15.57512695 45.65039062 16.07666016 C44.75513672 16.5876123 43.85988281 17.09856445 42.9375 17.625 C35.17637478 22.04543881 35.17637478 22.04543881 27.75390625 27 C24.24005429 29.50253949 21.08356061 31.53821733 17 33 C12.19164066 32.17262645 8.93586675 29.77642384 5 27 C2.8669991 25.8508556 0.72070808 24.72607382 -1.4375 23.625 C-8.12428123 20.00636657 -14.56929186 16.05208287 -21 12 C-20.40082971 8.30202638 -20.06883187 8.05145602 -16.796875 5.60546875 C-15.455894 4.7862754 -14.10651022 3.9807136 -12.75 3.1875 C-11.74646484 2.55811523 -11.74646484 2.55811523 -10.72265625 1.91601562 C-6.86296112 -0.38539395 -4.42609977 -1.81679433 0 0 Z " fill="#39C2E6" transform="translate(44,60)"/>
<path d="M0 0 C2.64 0 5.28 0 8 0 C9 5 10 10 11 15 C12.32 10.05 13.64 5.1 15 0 C17.64 0 20.28 0 23 0 C23 9.9 23 19.8 23 30 C21.02 30.33 19.04 30.66 17 31 C16.67 28.36 16.34 25.72 16 23 C15.67 24.98 15.34 26.96 15 29 C13.02 29 11.04 29 9 29 C8.34 27.02 7.68 25.04 7 23 C6.67 24.98 6.34 26.96 6 29 C4.02 29.33 2.04 29.66 0 30 C-1.11984119 26.64047644 -1.028066 24.33089543 -0.87890625 20.80078125 C-0.83056641 19.59228516 -0.78222656 18.38378906 -0.73242188 17.13867188 C-0.67634766 15.87603516 -0.62027344 14.61339844 -0.5625 13.3125 C-0.51029297 12.03826172 -0.45808594 10.76402344 -0.40429688 9.45117188 C-0.27449555 6.30053961 -0.1395244 3.15021423 0 0 Z " fill="#FDFDFD" transform="translate(200,35)"/>
<path d="M0 0 C2.0133653 1.31306433 4.01231606 2.64837492 6 4 C7.26262938 4.50038495 8.53375314 4.97987076 9.8125 5.4375 C10.864375 5.953125 11.91625 6.46875 13 7 C13.69921875 9.59765625 13.69921875 9.59765625 14 12 C3.61506155 20.09181752 3.61506155 20.09181752 -2 22 C-6.90334087 21.24563987 -10.06676925 18.90919434 -14 16 C-15.5654445 15.17352309 -17.14700345 14.37605433 -18.75 13.625 C-19.8225 13.08875 -20.895 12.5525 -22 12 C-22 11.01 -22 10.02 -22 9 C-20.865625 8.46375 -19.73125 7.9275 -18.5625 7.375 C-14.4357328 5.34820122 -10.83956011 2.84047226 -7.17578125 0.07421875 C-4.33464929 -1.32849452 -2.97006364 -0.9675572 0 0 Z " fill="#E8B232" transform="translate(63,71)"/>
<path d="M0 0 C1.65 0 3.3 0 5 0 C5.4125 0.5775 5.825 1.155 6.25 1.75 C8.99097144 5.27410614 12.92264644 6.39299273 17 8 C17 9.32 17 10.64 17 12 C15.27281484 12.96189997 13.54315942 13.91936508 11.8125 14.875 C10.36810547 15.67550781 10.36810547 15.67550781 8.89453125 16.4921875 C6.30260482 17.8423678 3.73238902 18.97098329 1 20 C1 20.66 1 21.32 1 22 C0.38253906 22.30292969 -0.23492187 22.60585938 -0.87109375 22.91796875 C-6.67482882 25.78891837 -12.36908058 28.80370516 -18 32 C-18.88277755 27.48184719 -19.10589503 23.22487306 -19.0625 18.625 C-19.05347656 17.37976563 -19.04445313 16.13453125 -19.03515625 14.8515625 C-19.02355469 13.91054688 -19.01195313 12.96953125 -19 12 C-16.8203125 11.28515625 -16.8203125 11.28515625 -14 11 C-11.4296875 12.43359375 -11.4296875 12.43359375 -8.875 14.4375 C-5.35930655 17.38093504 -5.35930655 17.38093504 -1 18 C-0.67 12.06 -0.34 6.12 0 0 Z " fill="#0F9F9C" transform="translate(41,28)"/>
<path d="M0 0 C0.886875 0.20625 1.77375 0.4125 2.6875 0.625 C4.68734798 0.64965904 6.68769022 0.65258358 8.6875 0.625 C8.60617005 4.81326791 8.49336305 9.00012793 8.375 13.1875 C8.35244141 14.36892578 8.32988281 15.55035156 8.30664062 16.76757812 C8.11301877 23.05148726 7.92074558 28.14921829 4.6875 33.625 C1.21707297 35.93861802 -0.23084173 36.13520728 -4.3125 35.625 C-6.25 33.875 -6.25 33.875 -7.3125 31.625 C-7 29.375 -7 29.375 -6.3125 27.625 C-2.5625 26.5 -2.5625 26.5 -0.3125 27.625 C0.0175 28.615 0.3475 29.605 0.6875 30.625 C0.6875 28.645 0.6875 26.665 0.6875 24.625 C0.11 24.8725 -0.4675 25.12 -1.0625 25.375 C-2.17625 25.49875 -2.17625 25.49875 -3.3125 25.625 C-6.08583918 23.40632865 -7.18123442 22.01879675 -8.3125 18.625 C-8.4572963 16.67024991 -8.53317502 14.7098862 -8.5625 12.75 C-8.60117187 11.20699219 -8.60117187 11.20699219 -8.640625 9.6328125 C-8.26457858 6.1857203 -7.37351514 4.38907171 -5.3125 1.625 C-2.3125 -0.375 -2.3125 -0.375 0 0 Z M-0.3125 4.625 C-2.59312828 8.04594242 -2.53175007 9.30687222 -2.4375 13.3125 C-2.41945313 14.30636719 -2.40140625 15.30023438 -2.3828125 16.32421875 C-2.35960937 17.08347656 -2.33640625 17.84273437 -2.3125 18.625 C-0.9925 18.625 0.3275 18.625 1.6875 18.625 C2.92158207 16.15683586 2.88947579 14.37838799 2.9375 11.625 C2.96328125 10.738125 2.9890625 9.85125 3.015625 8.9375 C2.90734375 8.174375 2.7990625 7.41125 2.6875 6.625 C1.6975 5.965 0.7075 5.305 -0.3125 4.625 Z " fill="#FDFDFD" transform="translate(284.3125,40.375)"/>
<path d="M0 0 C1.9375 1.75 1.9375 1.75 3 4 C2.6875 6.75 2.6875 6.75 2 9 C-0.375 9.625 -0.375 9.625 -3 10 C-3.66 9.34 -4.32 8.68 -5 8 C-5 7.01 -5 6.02 -5 5 C-5.66 5 -6.32 5 -7 5 C-6.69077897 8.26087633 -6.37358875 9.65254128 -3.93359375 11.921875 C-2.69802734 12.82679687 -2.69802734 12.82679687 -1.4375 13.75 C2.7830974 17.29852775 2.7830974 17.29852775 3.734375 20.375 C3.85771407 24.12450778 3.4319955 26.33539154 1.375 29.5 C-1.58989249 31.37256368 -3.48392794 31.92967856 -7 32 C-10.3125 31 -10.3125 31 -13 29 C-14 25.4375 -14 25.4375 -14 22 C-12 20 -12 20 -9.4375 19.8125 C-7 20 -7 20 -6 21 C-5.95936168 22.66617115 -5.957279 24.33388095 -6 26 C-5.01 26 -4.02 26 -3 26 C-3.0311941 23.13265479 -3.0311941 23.13265479 -4 20 C-6.81711646 17.87178116 -6.81711646 17.87178116 -10 16 C-12.71542351 13.28457649 -13.86657339 11.80055964 -14.5 8 C-13.8765914 4.25954841 -12.70322907 2.62813937 -10 0 C-6.6231317 -1.57587187 -3.52368175 -0.97463538 0 0 Z " fill="#FCFCFC" transform="translate(119,34)"/>
<path d="M0 0 C3.12142688 3.12142688 3.51314543 6.69226149 4 11 C3.87932459 15.03055878 3.50083496 19.00008836 3 23 C1.948125 22.979375 0.89625 22.95875 -0.1875 22.9375 C-3.85285586 22.83680015 -3.85285586 22.83680015 -6.6875 23.75 C-9 24 -9 24 -11.375 22.4375 C-13 20 -13 20 -13 17 C-11.593311 12.77993301 -9.38901568 10.92601045 -5.75 8.5 C-5.1725 8.005 -4.595 7.51 -4 7 C-4 5.68 -4 4.36 -4 3 C-4.99 3.495 -4.99 3.495 -6 4 C-6.65213292 6.02463255 -6.65213292 6.02463255 -7 8 C-8.65 7.67 -10.3 7.34 -12 7 C-13 4 -13 4 -11.8125 1.375 C-10 -1 -10 -1 -8.1875 -1.9375 C-5.11742729 -2.02521636 -2.82103601 -1.16521053 0 0 Z M-4 13 C-4.99 13.66 -5.98 14.32 -7 15 C-7 16.32 -7 17.64 -7 19 C-5.68 18.34 -4.36 17.68 -3 17 C-3.33 15.68 -3.66 14.36 -4 13 Z " fill="#FCFCFC" transform="translate(237,42)"/>
<path d="M0 0 C3.4375 0.8125 3.4375 0.8125 5.4375 3.8125 C5.7843602 7.62796222 5.97116895 9.94528796 3.9375 13.25 C3.4425 13.765625 2.9475 14.28125 2.4375 14.8125 C3.4275 15.1425 4.4175 15.4725 5.4375 15.8125 C6.1875 18 6.1875 18 6.4375 20.8125 C4.9375 23.625 4.9375 23.625 2.4375 25.8125 C-1.0625 26.375 -1.0625 26.375 -4.5625 25.8125 C-7.46967073 23.59386971 -8.40231643 22.29305071 -9.5625 18.8125 C-9.7072963 16.85774991 -9.78317502 14.8973862 -9.8125 12.9375 C-9.85117187 11.39449219 -9.85117187 11.39449219 -9.890625 9.8203125 C-9.51457858 6.3732203 -8.62351514 4.57657171 -6.5625 1.8125 C-3.5625 -0.1875 -3.5625 -0.1875 0 0 Z M-2.5625 3.8125 C-4.0408226 6.76914519 -3.62282783 9.55479737 -3.5625 12.8125 C-1.39608335 11.14704661 -1.39608335 11.14704661 0.4375 8.8125 C0.29724801 6.10544488 0.29724801 6.10544488 -0.5625 3.8125 C-1.2225 3.8125 -1.8825 3.8125 -2.5625 3.8125 Z M-3.5625 16.8125 C-3.2325 18.4625 -2.9025 20.1125 -2.5625 21.8125 C-1.5725 21.4825 -0.5825 21.1525 0.4375 20.8125 C0.1075 19.4925 -0.2225 18.1725 -0.5625 16.8125 C-1.5525 16.8125 -2.5425 16.8125 -3.5625 16.8125 Z " fill="#FDFDFD" transform="translate(303.5625,40.1875)"/>
<path d="M0 0 C1.93063262 2.87160651 2.28286209 5.3544144 2.4140625 8.765625 C2.45273438 9.65507813 2.49140625 10.54453125 2.53125 11.4609375 C2.5621875 12.38132812 2.593125 13.30171875 2.625 14.25 C2.66367188 15.18585937 2.70234375 16.12171875 2.7421875 17.0859375 C2.83624844 19.39043054 2.92189399 21.69492013 3 24 C1.91203125 23.98582031 0.8240625 23.97164062 -0.296875 23.95703125 C-3.9497503 23.87868296 -3.9497503 23.87868296 -7.25 24.6875 C-10 25 -10 25 -11.875 24 C-13.65707236 20.83187136 -13.49911389 18.5561865 -13 15 C-10.75 12.75 -10.75 12.75 -8 11 C-7.236875 10.4225 -6.47375 9.845 -5.6875 9.25 C-5.130625 8.8375 -4.57375 8.425 -4 8 C-4.34786708 6.02463255 -4.34786708 6.02463255 -5 4 C-5.66 3.67 -6.32 3.34 -7 3 C-6.814375 3.804375 -6.62875 4.60875 -6.4375 5.4375 C-6.293125 6.283125 -6.14875 7.12875 -6 8 C-7 9 -7 9 -9.5 9.125 C-12 9 -12 9 -13 8 C-12.71269945 5.66055264 -12.38063221 3.3260857 -12 1 C-7.69897516 -1.21567946 -4.66680146 -1.23274001 0 0 Z M-6.625 15.5 C-7.07875 15.995 -7.5325 16.49 -8 17 C-7.67 17.99 -7.34 18.98 -7 20 C-6.34 20 -5.68 20 -5 20 C-4.34 18.02 -3.68 16.04 -3 14 C-5.12364481 13.77390663 -5.12364481 13.77390663 -6.625 15.5 Z " fill="#FCFCFC" transform="translate(179,41)"/>
<path d="M0 0 C2.375 0.125 2.375 0.125 5 1 C8.09712191 4.97782008 8.35689513 8.04006587 8.25 13 C8.23453125 14.19625 8.2190625 15.3925 8.203125 16.625 C8.02845158 19.52726599 7.66325888 22.17580091 7 25 C5.35 25 3.7 25 2 25 C0.64137027 21.09519751 1.10530288 17.2898224 1.4375 13.25 C1.48970703 12.55261719 1.54191406 11.85523438 1.59570312 11.13671875 C1.72474072 9.42403797 1.86159614 7.71194934 2 6 C1.01 6.33 0.02 6.66 -1 7 C-2.18695553 10.56086658 -2.35095418 13.97331024 -2.5625 17.6875 C-2.62727539 18.7403418 -2.62727539 18.7403418 -2.69335938 19.81445312 C-2.7991736 21.54275206 -2.90006581 23.2713511 -3 25 C-4.65 25 -6.3 25 -8 25 C-8 17.08 -8 9.16 -8 1 C-5.69 1 -3.38 1 -1 1 C-0.67 0.67 -0.34 0.34 0 0 Z " fill="#FCFCFC" transform="translate(250,40)"/>
<path d="M0 0 C2.69111843 2.8494662 3.38749828 4.88994625 3.51171875 8.765625 C3.54716797 9.65507813 3.58261719 10.54453125 3.61914062 11.4609375 C3.64169922 12.38132812 3.66425781 13.30171875 3.6875 14.25 C3.73874023 15.65378906 3.73874023 15.65378906 3.79101562 17.0859375 C3.87332162 19.39050533 3.9425263 21.69470119 4 24 C2.91589844 23.9896875 1.83179688 23.979375 0.71484375 23.96875 C-2.65968714 23.99713722 -5.69636417 24.35538813 -9 25 C-11.5077771 22.4922229 -11.98779356 21.21971599 -12.1875 17.625 C-10.69747755 13.07651041 -8.7196011 11.9336119 -4.71484375 9.5546875 C-2.70301096 8.08292598 -2.70301096 8.08292598 -2.75390625 5.3203125 C-2.83511719 4.55460937 -2.91632813 3.78890625 -3 3 C-3.99 3 -4.98 3 -6 3 C-5.814375 3.804375 -5.62875 4.60875 -5.4375 5.4375 C-5.293125 6.283125 -5.14875 7.12875 -5 8 C-6 9 -6 9 -8.5625 9.0625 C-9.366875 9.041875 -10.17125 9.02125 -11 9 C-11.6875 6.75 -11.6875 6.75 -12 4 C-9.07937866 -1.2571184 -5.53097732 -1.49797302 0 0 Z M-5.0625 16 C-5.701875 16.66 -6.34125 17.32 -7 18 C-6.67 18.66 -6.34 19.32 -6 20 C-5.01 19.67 -4.02 19.34 -3 19 C-2.67 17.35 -2.34 15.7 -2 14 C-3.35917681 13.88397569 -3.35917681 13.88397569 -5.0625 16 Z " fill="#FDFDFD" transform="translate(271,41)"/>
<path d="M0 0 C2 1.6875 2 1.6875 3 4 C2.6875 7.25 2.6875 7.25 2 10 C0.125 10.625 0.125 10.625 -2 11 C-2.66 10.34 -3.32 9.68 -4 9 C-3.625 5.875 -3.625 5.875 -3 3 C-3.99 3 -4.98 3 -6 3 C-6 8.94 -6 14.88 -6 21 C-5.01 21 -4.02 21 -3 21 C-3.33 18.69 -3.66 16.38 -4 14 C-2.1875 13.375 -2.1875 13.375 0 13 C0.99 13.66 1.98 14.32 3 15 C2.69029053 18.40680413 2.31233339 20.56041967 0.3125 23.375 C-2 25 -2 25 -4.9375 25.625 C-8.27224726 24.94443933 -10.03428257 24.00590054 -12.0859375 21.24609375 C-14.14877977 16.17714374 -13.74860716 10.33382603 -13 5 C-11.65625 2.12890625 -11.65625 2.12890625 -10 0 C-6.20519658 -1.26493447 -3.87641726 -0.89988258 0 0 Z " fill="#FDFDFD" transform="translate(154,41)"/>
<path d="M0 0 C2.03861837 1.42703286 2.7585502 2.40735048 3.6875 4.6875 C4.59781298 11.42381608 4.26162143 16.05918954 1 22 C-0.8125 24 -0.8125 24 -3 25 C-6.56021625 24.92734253 -8.30721267 24.71667655 -10.8125 22.125 C-13.38374719 17.52382082 -13.62151166 13.14611657 -13 8 C-10.30796777 0.38320737 -8.29536571 -1.74639278 0 0 Z M-5 3 C-7.10022886 6.43673813 -7.24140313 9.13616813 -7.1875 13.125 C-7.18105469 14.17945313 -7.17460937 15.23390625 -7.16796875 16.3203125 C-7.17680958 18.97169979 -7.17680958 18.97169979 -6 21 C-5.34 21 -4.68 21 -4 21 C-2.14868517 17.07142246 -1.77995057 14.01224888 -1.875 9.6875 C-1.90207031 8.08455078 -1.90207031 8.08455078 -1.9296875 6.44921875 C-1.95289063 5.64097656 -1.97609375 4.83273438 -2 4 C-2.99 3.67 -3.98 3.34 -5 3 Z " fill="#FDFDFD" transform="translate(136,41)"/>
<path d="M0 0 C4.55488407 0.56614378 7.98054016 2.49123903 11.8125 4.875 C12.40998047 5.22691406 13.00746094 5.57882813 13.62304688 5.94140625 C15.33203125 6.9921875 15.33203125 6.9921875 18 9 C18 9.99 18 10.98 18 12 C16.34765625 13.3503418 16.34765625 13.3503418 14.0625 14.69921875 C13.25039062 15.18583984 12.43828125 15.67246094 11.6015625 16.17382812 C10.31378906 16.9230957 10.31378906 16.9230957 9 17.6875 C8.14148438 18.19861328 7.28296875 18.70972656 6.3984375 19.23632812 C4.27124519 20.50082578 2.13850009 21.75475342 0 23 C-0.99290126 20.02129623 -1.05524548 18.40817115 -0.87890625 15.33203125 C-0.83056641 14.43935547 -0.78222656 13.54667969 -0.73242188 12.62695312 C-0.67634766 11.69818359 -0.62027344 10.76941406 -0.5625 9.8125 C-0.51029297 8.87212891 -0.45808594 7.93175781 -0.40429688 6.96289062 C-0.27468082 4.64158499 -0.13971819 2.32071591 0 0 Z " fill="#07A0A3" transform="translate(78,60)"/>
<path d="M0 0 C2.1875 0.875 2.1875 0.875 4.375 3.125 C7.91853533 6.5897901 11.80481526 8.6311418 16.1875 10.875 C14.70972809 15.64765595 10.70142576 17.30102097 6.625 19.625 C5.92697266 20.03621094 5.22894531 20.44742188 4.50976562 20.87109375 C-0.63479807 23.875 -0.63479807 23.875 -1.8125 23.875 C-1.8125 16.615 -1.8125 9.355 -1.8125 1.875 C-2.4725 1.545 -3.1325 1.215 -3.8125 0.875 C-1.8125 -0.125 -1.8125 -0.125 0 0 Z " fill="#06A1A7" transform="translate(61.8125,14.125)"/>
<path d="M0 0 C0 7.26 0 14.52 0 22 C-4.28276226 20.2868951 -7.94599933 18.31473175 -11.8125 15.875 C-12.7087207 15.31619141 -12.7087207 15.31619141 -13.62304688 14.74609375 C-15.08426251 13.8342952 -16.54244585 12.91764024 -18 12 C-17.9296875 10.265625 -17.9296875 10.265625 -17 8 C-14.71448245 6.39838412 -12.56434038 5.06461458 -10.125 3.75 C-9.48691406 3.38648438 -8.84882812 3.02296875 -8.19140625 2.6484375 C-5.2746676 1.02870372 -3.38542353 0 0 0 Z " fill="#079FA5" transform="translate(41,60)"/>
<path d="M0 0 C2 3 2 3 1.875 5.5625 C1 8 1 8 -1.0625 9.3125 C-1.701875 9.539375 -2.34125 9.76625 -3 10 C-4.32 9.01 -5.64 8.02 -7 7 C-7.87896977 12.0540762 -8.06146869 16.83173294 -7.9375 21.9609375 C-8 24 -8 24 -9 25 C-10.65 25 -12.3 25 -14 25 C-14 17.08 -14 9.16 -14 1 C-12.35 0.67 -10.7 0.34 -9 0 C-5.85135005 -1.57432497 -3.35512575 -0.71895552 0 0 Z " fill="#FDFDFD" transform="translate(325,41)"/>
<path d="M0 0 C5 2 5 2 6.875 3.4375 C9.11654261 5.23497069 9.11654261 5.23497069 12.6875 6.375 C13.780625 6.91125 14.87375 7.4475 16 8 C16.70703125 10.6015625 16.70703125 10.6015625 17 13 C14.92317952 14.34453118 12.83957514 15.67555837 10.75 17 C10.16347656 17.3815625 9.57695313 17.763125 8.97265625 18.15625 C5.6014219 20.27747611 4.09419282 21 0 21 C0 14.07 0 7.14 0 0 Z " fill="#F05242" transform="translate(60,70)"/>
<path d="M0 0 C2 1 2 1 3 3 C2.01 3 1.02 3 0 3 C0 8.94 0 14.88 0 21 C-4 22 -4 22 -6.40234375 20.63671875 C-7.23894531 19.99347656 -8.07554688 19.35023437 -8.9375 18.6875 C-12.2106349 16.19344203 -15.10877858 14.3713249 -19 13 C-15.73801976 9.54384679 -11.94331357 7.25761804 -7.9375 4.75 C-6.83825195 4.04230469 -6.83825195 4.04230469 -5.71679688 3.3203125 C-5.01490234 2.87945313 -4.31300781 2.43859375 -3.58984375 1.984375 C-2.94909912 1.57928711 -2.30835449 1.17419922 -1.64819336 0.75683594 C-1.10428955 0.50708008 -0.56038574 0.25732422 0 0 Z " fill="#D3B244" transform="translate(41,25)"/>
<path d="M0 0 C0.33 0 0.66 0 1 0 C1 7.59 1 15.18 1 23 C-11.85714286 16.71428571 -11.85714286 16.71428571 -17 13 C-12.74300838 8.1754095 -7.71088806 4.94136005 -2 2 C-1.34 2 -0.68 2 0 2 C0 1.34 0 0.68 0 0 Z " fill="#ECB031" transform="translate(96,37)"/>
<path d="M0 0 C0 6.27 0 12.54 0 19 C-4.92505839 18.17915693 -6.76580393 17.8397955 -10.6875 15.4375 C-14.06716047 13.34852524 -14.06716047 13.34852524 -18 13 C-18 11.68 -18 10.36 -18 9 C-16.0234375 7.40234375 -16.0234375 7.40234375 -13.375 5.9375 C-12.46492188 5.42832031 -11.55484375 4.91914062 -10.6171875 4.39453125 C-9.32167969 3.70423828 -9.32167969 3.70423828 -8 3 C-6.845 2.38125 -5.69 1.7625 -4.5 1.125 C-2 0 -2 0 0 0 Z " fill="#E9B22E" transform="translate(60,39)"/>
<path d="M0 0 C1.98 0 3.96 0 6 0 C6 10.56 6 21.12 6 32 C4.02 32 2.04 32 0 32 C0 21.44 0 10.88 0 0 Z " fill="#FDFDFD" transform="translate(183,33)"/>
<path d="M0 0 C0 5.94 0 11.88 0 18 C-10.64954683 16.43806647 -10.64954683 16.43806647 -15 11 C-15.66 10.34 -16.32 9.68 -17 9 C-14.62271893 6.40447673 -12.06339151 4.64011062 -9.0625 2.8125 C-8.20785156 2.28269531 -7.35320313 1.75289062 -6.47265625 1.20703125 C-4 0 -4 0 0 0 Z " fill="#F84A40" transform="translate(59,17)"/>
<path d="M0 0 C0 6.6 0 13.2 0 20 C-2.248125 18.741875 -4.49625 17.48375 -6.8125 16.1875 C-7.51608643 15.79715576 -8.21967285 15.40681152 -8.94458008 15.00463867 C-12.02929688 13.25960069 -14.57924314 11.57465929 -17 9 C-14.54481265 7.49462965 -12.0861548 5.99555574 -9.625 4.5 C-8.92632812 4.07074219 -8.22765625 3.64148438 -7.5078125 3.19921875 C-2.2265625 0 -2.2265625 0 0 0 Z " fill="#F8F9F7" transform="translate(78,28)"/>
<path d="M0 0 C4.52167165 0.90433433 6.29038963 1.64756416 10 4 C11.99242489 5.0150089 13.99074195 6.01873444 16 7 C16 8.32 16 9.64 16 11 C13.37653508 12.74897661 11.50454406 13.6148939 8.5625 14.5625 C7.41974609 14.93568359 7.41974609 14.93568359 6.25390625 15.31640625 C4.1879815 15.94298655 2.09439542 16.47640115 0 17 C0 11.39 0 5.78 0 0 Z " fill="#44C0E0" transform="translate(42,29)"/>
<path d="M0 0 C0.99 0 1.98 0 3 0 C3 7.26 3 14.52 3 22 C4.98 22.66 6.96 23.32 9 24 C10.82078406 24.98989105 12.61488021 26.03087148 14.375 27.125 C15.24898437 27.66382812 16.12296875 28.20265625 17.0234375 28.7578125 C17.67570312 29.16773437 18.32796875 29.57765625 19 30 C17.22265625 30.6484375 17.22265625 30.6484375 15 31 C13.18359375 30.0390625 13.18359375 30.0390625 11.4375 28.625 C9.15619153 26.80605026 7.83947352 25.94649117 5 25 C5.185625 25.886875 5.37125 26.77375 5.5625 27.6875 C5.98042484 30.85178811 5.80777742 32.94839642 5 36 C5.99 36.33 6.98 36.66 8 37 C8 37.66 8 38.32 8 39 C8.66 39 9.32 39 10 39 C10 38.34 10 37.68 10 37 C11.32 37 12.64 37 14 37 C14 36.34 14 35.68 14 35 C15.32 35.33 16.64 35.66 18 36 C15.73595458 37.36680153 13.46498979 38.71844445 11.1875 40.0625 C10.54490234 40.45244141 9.90230469 40.84238281 9.24023438 41.24414062 C7.5371085 42.24130759 5.77054142 43.12812687 4 44 C3.01 43.67 2.02 43.34 1 43 C1.99 42.505 1.99 42.505 3 42 C3 35.73 3 29.46 3 23 C2.34 23 1.68 23 1 23 C1 22.01 1 21.02 1 20 C-0.32 19.67 -1.64 19.34 -3 19 C-2.34 18.67 -1.68 18.34 -1 18 C-0.01 18.33 0.98 18.66 2 19 C1.67 13.39 1.34 7.78 1 2 C0.34 1.67 -0.32 1.34 -1 1 C-0.67 0.67 -0.34 0.34 0 0 Z " fill="#D35F53" transform="translate(57,16)"/>
<path d="M0 0 C0 6.27 0 12.54 0 19 C-8 14 -8 14 -10 10 C-11.32 10 -12.64 10 -14 10 C-12.51126029 5.89927985 -10.23005105 4.70808372 -6.4375 2.75 C-5.44621094 2.22921875 -4.45492187 1.7084375 -3.43359375 1.171875 C-1 0 -1 0 0 0 Z " fill="#37C4ED" transform="translate(78,61)"/>
<path d="M0 0 C2.31 0 4.62 0 7 0 C6.67 7.92 6.34 15.84 6 24 C4.35 24 2.7 24 1 24 C0.28586721 15.97875848 -0.14525497 8.05358138 0 0 Z " fill="#FCFCFC" transform="translate(158,42)"/>
<path d="M0 0 C3.99991608 0.82756884 6.60965123 2.73976749 10 5 C12.22602615 5.76939681 12.22602615 5.76939681 14 6 C13.67 7.32 13.34 8.64 13 10 C11.68 10 10.36 10 9 10 C9 10.66 9 11.32 9 12 C7.68 12 6.36 12 5 12 C5 12.66 5 13.32 5 14 C3 14 3 14 1.38671875 12.85546875 C-0.53906265 10.278719 -0.29961289 8.48903179 -0.1875 5.3125 C-0.16042969 4.31863281 -0.13335937 3.32476562 -0.10546875 2.30078125 C-0.07066406 1.54152344 -0.03585938 0.78226563 0 0 Z " fill="#FB4B41" transform="translate(62,41)"/>
<path d="M0 0 C1.98 0.66 3.96 1.32 6 2 C6 3.65 6 5.3 6 7 C7.65 7 9.3 7 11 7 C8.48367951 9.85984547 5.66114447 11.41468822 2.3125 13.1875 C1.31863281 13.71730469 0.32476562 14.24710938 -0.69921875 14.79296875 C-1.45847656 15.19128906 -2.21773437 15.58960938 -3 16 C-4.125 10.25 -4.125 10.25 -3 8 C-2.34 8 -1.68 8 -1 8 C-1.020625 6.865625 -1.04125 5.73125 -1.0625 4.5625 C-1 1 -1 1 0 0 Z " fill="#0FA4A6" transform="translate(26,44)"/>
<path d="M0 0 C0.33 0 0.66 0 1 0 C1 4.29 1 8.58 1 13 C-0.98 13.33 -2.96 13.66 -5 14 C-6.4606285 11.35261084 -7 10.10551666 -7 7 C-8.32 6.67 -9.64 6.34 -11 6 C-9.68 6 -8.36 6 -7 6 C-7 5.34 -7 4.68 -7 4 C-4.35261084 2.5393715 -3.10551666 2 0 2 C0 1.34 0 0.68 0 0 Z " fill="#EAB22F" transform="translate(38,29)"/>
<path d="M0 0 C0.66 0 1.32 0 2 0 C2 0.66 2 1.32 2 2 C4.97 2.495 4.97 2.495 8 3 C8 3.66 8 4.32 8 5 C7.67 5.33 7.34 5.66 7 6 C8.32 6 9.64 6 11 6 C11 6.99 11 7.98 11 9 C11.66 9.33 12.32 9.66 13 10 C12.113125 9.7525 11.22625 9.505 10.3125 9.25 C6.8829449 8.64710348 6.8829449 8.64710348 4.125 10.9375 C3.42375 11.618125 2.7225 12.29875 2 13 C2.33 13.99 2.66 14.98 3 16 C2.01 16 1.02 16 0 16 C0 10.72 0 5.44 0 0 Z " fill="#FB4C41" transform="translate(80,29)"/>
<path d="M0 0 C0.66 0.33 1.32 0.66 2 1 C0.6875 2.5 0.6875 2.5 -1 4 C-1.99 4 -2.98 4 -4 4 C-3.67 5.32 -3.34 6.64 -3 8 C-3.66 8 -4.32 8 -5 8 C-4.01 10.64 -3.02 13.28 -2 16 C-6.03520597 14.41037341 -10.01811282 12.71767682 -14 11 C-14 10.01 -14 9.02 -14 8 C-13.49210937 7.75765625 -12.98421875 7.5153125 -12.4609375 7.265625 C-8.05829981 5.12201863 -4.01142366 2.80799656 0 0 Z " fill="#DBB342" transform="translate(55,72)"/>
<path d="M0 0 C0.99 0.33 1.98 0.66 3 1 C1.25156882 2.12743666 -0.4988094 3.2518542 -2.25 4.375 C-3.22453125 5.00148438 -4.1990625 5.62796875 -5.203125 6.2734375 C-8 8 -8 8 -10.296875 9.1015625 C-12.1861018 9.88683775 -12.1861018 9.88683775 -13 12 C-11.35 11.67 -9.7 11.34 -8 11 C-7.34 12.98 -6.68 14.96 -6 17 C-8.70679384 16.02254667 -10.78634735 15.18026942 -13 13.3125 C-14.92457717 11.76670996 -14.92457717 11.76670996 -17.3125 12.125 C-20.65617769 13.21363925 -23.79388767 14.5541062 -27 16 C-27 15.34 -27 14.68 -27 14 C-25.02 13.34 -23.04 12.68 -21 12 C-21 11.01 -21 10.02 -21 9 C-21.66 8.67 -22.32 8.34 -23 8 C-21.081875 8.1546875 -21.081875 8.1546875 -19.125 8.3125 C-12.56125243 8.33323854 -6.90718506 5.38939329 -1.89453125 1.26953125 C-1.26933594 0.85058594 -0.64414063 0.43164062 0 0 Z " fill="#66ACB6" transform="translate(77,59)"/>
<path d="M0 0 C4.24640078 0.84928016 5.92519063 1.32343109 9.3125 3.5625 C10.00988281 4.01753906 10.70726563 4.47257812 11.42578125 4.94140625 C11.94527344 5.29074219 12.46476562 5.64007813 13 6 C12.67 6.99 12.34 7.98 12 9 C12 8.34 12 7.68 12 7 C10.02 6.34 8.04 5.68 6 5 C6 4.34 6 3.68 6 3 C4.68 2.67 3.36 2.34 2 2 C1.79410279 9.56407533 1.79410279 9.56407533 3 17 C3.66 17 4.32 17 5 17 C5 17.99 5 18.98 5 20 C3.02 20.99 1.04 21.98 -1 23 C-0.67 15.41 -0.34 7.82 0 0 Z " fill="#189AA4" transform="translate(78,60)"/>
<path d="M0 0 C2.4375 1.5625 2.4375 1.5625 4 3 C3.67 4.65 3.34 6.3 3 8 C2.34 8 1.68 8 1 8 C0.67 6.35 0.34 4.7 0 3 C-0.66 3 -1.32 3 -2 3 C-2 2.34 -2 1.68 -2 1 C-2.99 1.99 -3.98 2.98 -5 4 C-4.34 4.66 -3.68 5.32 -3 6 C-3.66 6 -4.32 6 -5 6 C-5 6.66 -5 7.32 -5 8 C-6.65 7.67 -8.3 7.34 -10 7 C-10.33 5.35 -10.66 3.7 -11 2 C-7.37649774 -1.62350226 -4.81165191 -1.20291298 0 0 Z " fill="#F94D42" transform="translate(73,76)"/>
<path d="M0 0 C0.33 0 0.66 0 1 0 C1 7.59 1 15.18 1 23 C-11.85714286 16.71428571 -11.85714286 16.71428571 -17 13 C-12.99434629 11.39773852 -9.91390601 12.52305434 -6 14 C-5.67 14.99 -5.34 15.98 -5 17 C-3.35 17.33 -1.7 17.66 0 18 C0 12.06 0 6.12 0 0 Z " fill="#D3A94E" transform="translate(96,37)"/>
<path d="M0 0 C3.99500618 1.3697164 6.80009492 3.25722422 10 6 C7.03 5.505 7.03 5.505 4 5 C4 4.34 4 3.68 4 3 C3.34 3 2.68 3 2 3 C2 9.6 2 16.2 2 23 C0.35 23.66 -1.3 24.32 -3 25 C-2.67330322 24.43756592 -2.34660645 23.87513184 -2.01000977 23.2956543 C-0.87982935 20.72686376 -0.78187846 19.05990817 -0.83984375 16.26953125 C-0.85080078 15.38458984 -0.86175781 14.49964844 -0.87304688 13.58789062 C-0.89431641 12.67201172 -0.91558594 11.75613281 -0.9375 10.8125 C-0.97177531 8.98575315 -1.00195169 7.15892317 -1.02734375 5.33203125 C-1.04531006 4.52483643 -1.06327637 3.7176416 -1.08178711 2.88598633 C-1 1 -1 1 0 0 Z " fill="#DB6F67" transform="translate(78,26)"/>
<path d="M0 0 C0.66 0.33 1.32 0.66 2 1 C-3.75 6 -3.75 6 -6 6 C-6.33 7.98 -6.66 9.96 -7 12 C-6.34 12 -5.68 12 -5 12 C-5 12.66 -5 13.32 -5 14 C-9.455 13.01 -9.455 13.01 -14 12 C-14 10.68 -14 9.36 -14 8 C-11.953125 6.3671875 -11.953125 6.3671875 -9.25 4.875 C-8.36828125 4.37742187 -7.4865625 3.87984375 -6.578125 3.3671875 C-5.72734375 2.91601562 -4.8765625 2.46484375 -4 2 C-3.27296875 1.59007812 -2.5459375 1.18015625 -1.796875 0.7578125 C-0.90742187 0.38269531 -0.90742187 0.38269531 0 0 Z " fill="#CDAC49" transform="translate(56,40)"/>
<path d="M0 0 C0.639375 0.2475 1.27875 0.495 1.9375 0.75 C2.2675 1.74 2.5975 2.73 2.9375 3.75 C1.9475 3.75 0.9575 3.75 -0.0625 3.75 C-0.0625 9.36 -0.0625 14.97 -0.0625 20.75 C0.5975 21.08 1.2575 21.41 1.9375 21.75 C-0.0425 22.74 -0.0425 22.74 -2.0625 23.75 C-2.0625 16.49 -2.0625 9.23 -2.0625 1.75 C-2.7225 1.42 -3.3825 1.09 -4.0625 0.75 C-2.0625 -0.25 -2.0625 -0.25 0 0 Z " fill="#269797" transform="translate(62.0625,14.25)"/>
<path d="M0 0 C4 1 4 1 5.4375 3.25 C6 6 6 6 4.625 8.625 C3.820625 9.800625 3.820625 9.800625 3 11 C3 11.99 3 12.98 3 14 C2.01 14 1.02 14 0 14 C0 9.38 0 4.76 0 0 Z " fill="#37C4ED" transform="translate(43,31)"/>
<path d="M0 0 C0.66 0 1.32 0 2 0 C2 0.66 2 1.32 2 2 C2.66 2 3.32 2 4 2 C4.33 3.65 4.66 5.3 5 7 C3.35 6.67 1.7 6.34 0 6 C0 6.99 0 7.98 0 9 C-0.99 9 -1.98 9 -3 9 C-3.33 9.66 -3.66 10.32 -4 11 C-4.99 10.34 -5.98 9.68 -7 9 C-6.67 8.01 -6.34 7.02 -6 6 C-5.01 5.67 -4.02 5.34 -3 5 C-3 5.66 -3 6.32 -3 7 C-2.34 7 -1.68 7 -1 7 C-1.309375 5.824375 -1.309375 5.824375 -1.625 4.625 C-1.74875 3.75875 -1.8725 2.8925 -2 2 C-1.34 1.34 -0.68 0.68 0 0 Z " fill="#FB4A3D" transform="translate(69,77)"/>
<path d="M0 0 C1.65 0 3.3 0 5 0 C5.33 0.66 5.66 1.32 6 2 C4.35 1.67 2.7 1.34 1 1 C1 6.61 1 12.22 1 18 C3.01822917 16.92578125 5.03645833 15.8515625 7.0546875 14.77734375 C7.69664063 14.52082031 8.33859375 14.26429687 9 14 C9.66 14.33 10.32 14.66 11 15 C9.71186658 15.83878455 8.41936744 16.67086783 7.125 17.5 C6.40570313 17.9640625 5.68640625 18.428125 4.9453125 18.90625 C3 20 3 20 1 20 C1 20.66 1 21.32 1 22 C0.01 21.67 -0.98 21.34 -2 21 C-1.505 19.515 -1.505 19.515 -1 18 C-0.85507877 16.59335074 -0.75371069 15.1818867 -0.68359375 13.76953125 C-0.64169922 12.96708984 -0.59980469 12.16464844 -0.55664062 11.33789062 C-0.51732422 10.50451172 -0.47800781 9.67113281 -0.4375 8.8125 C-0.39431641 7.96751953 -0.35113281 7.12253906 -0.30664062 6.25195312 C-0.20068482 4.16815567 -0.0998498 2.08409897 0 0 Z " fill="#7BAA8C" transform="translate(41,28)"/>
<path d="M0 0 C2.475 0.99 2.475 0.99 5 2 C3.5243763 5.85674376 1.52993107 7.21823735 -2 9.25 C-2.886875 9.77078125 -3.77375 10.2915625 -4.6875 10.828125 C-7 12 -7 12 -9 12 C-9 11.34 -9 10.68 -9 10 C-8.34 10 -7.68 10 -7 10 C-7 9.34 -7 8.68 -7 8 C-5.02 7.01 -3.04 6.02 -1 5 C-1 4.01 -1 3.02 -1 2 C-0.67 1.34 -0.34 0.68 0 0 Z " fill="#20A2A6" transform="translate(73,23)"/>
<path d="M0 0 C0.66 0 1.32 0 2 0 C2 6.27 2 12.54 2 19 C-4.75 17.875 -4.75 17.875 -7 15 C-6.01 15 -5.02 15 -4 15 C-3.67 14.01 -3.34 13.02 -3 12 C-2.01 12.33 -1.02 12.66 0 13 C0 13.66 0 14.32 0 15 C-0.66 15 -1.32 15 -2 15 C-2 15.66 -2 16.32 -2 17 C-1.34 17 -0.68 17 0 17 C0 11.39 0 5.78 0 0 Z " fill="#EBAC43" transform="translate(58,39)"/>
<path d="M0 0 C2 1 2 1 3 3 C2.01 3 1.02 3 0 3 C0 8.94 0 14.88 0 21 C-1.32 21.33 -2.64 21.66 -4 22 C-5.75 20.5625 -5.75 20.5625 -7 19 C-5.02 19.33 -3.04 19.66 -1 20 C-1 14.39 -1 8.78 -1 3 C-1.66 2.67 -2.32 2.34 -3 2 C-2.01 1.34 -1.02 0.68 0 0 Z " fill="#B2AC6A" transform="translate(41,25)"/>
<path d="M0 0 C2.475 0.99 2.475 0.99 5 2 C4.67 3.32 4.34 4.64 4 6 C2.35 6.33 0.7 6.66 -1 7 C-1.625 4.625 -1.625 4.625 -2 2 C-1.34 1.34 -0.68 0.68 0 0 Z " fill="#FCFCFC" transform="translate(160,32)"/>
<path d="M0 0 C0.33 0 0.66 0 1 0 C1 6.6 1 13.2 1 20 C1.99 20.33 2.98 20.66 4 21 C1 22 1 22 -0.82421875 21.22265625 C-2.54947917 20.1484375 -4.27473958 19.07421875 -6 18 C-4 17 -4 17 0 18 C0 12.06 0 6.12 0 0 Z " fill="#ECA544" transform="translate(59,71)"/>
<path d="M0 0 C4.9861988 0.29330581 8.20837227 3.03881523 12 6 C11.01 6.495 11.01 6.495 10 7 C4.27272727 4.54545455 4.27272727 4.54545455 3 2 C1.33657163 3.66342837 1.63951903 5.7825709 1.4375 8.0625 C1.31181641 9.44115234 1.31181641 9.44115234 1.18359375 10.84765625 C1.12300781 11.55792969 1.06242187 12.26820312 1 13 C0.67 13 0.34 13 0 13 C-0.19397476 11.02145742 -0.38001321 9.0421352 -0.5625 7.0625 C-0.66691406 5.96035156 -0.77132813 4.85820313 -0.87890625 3.72265625 C-0.91886719 2.82417969 -0.95882813 1.92570312 -1 1 C-0.67 0.67 -0.34 0.34 0 0 Z " fill="#3B9C85" transform="translate(23,39)"/>
<path d="M0 0 C2.64 0 5.28 0 8 0 C9.33333333 2.66666667 10.66666667 5.33333333 12 8 C7.54448076 6.78485839 5.04256413 5.47721615 2 2 C1.34 1.34 0.68 0.68 0 0 Z " fill="#D45E5C" transform="translate(42,26)"/>
<path d="M0 0 C-0.33 1.32 -0.66 2.64 -1 4 C-1.66 4 -2.32 4 -3 4 C-3 4.99 -3 5.98 -3 7 C-2.01 7 -1.02 7 0 7 C0 7.66 0 8.32 0 9 C0.99 9.33 1.98 9.66 3 10 C2.67 10.66 2.34 11.32 2 12 C-4.70459519 7.88621444 -4.70459519 7.88621444 -5.9375 4.1875 C-5.9684375 3.1046875 -5.9684375 3.1046875 -6 2 C-2.25 0 -2.25 0 0 0 Z " fill="#43BFE5" transform="translate(75,68)"/>
<path d="M0 0 C0 5.28 0 10.56 0 16 C-0.33 16 -0.66 16 -1 16 C-1.33 12.37 -1.66 8.74 -2 5 C-3.98 5 -5.96 5 -8 5 C-3.22727273 0 -3.22727273 0 0 0 Z " fill="#E8AC3E" transform="translate(96,39)"/>
<path d="M0 0 C2 3 2 3 2 5 C2.66 5 3.32 5 4 5 C4 5.99 4 6.98 4 8 C2.02 8.99 0.04 9.98 -2 11 C-1.34 7.37 -0.68 3.74 0 0 Z " fill="#279497" transform="translate(79,72)"/>
<path d="M0 0 C2.31 0.33 4.62 0.66 7 1 C3.80009492 3.74277578 0.99500618 5.6302836 -3 7 C-3 6.34 -3 5.68 -3 5 C-3.66 4.67 -4.32 4.34 -5 4 C-3.68 4 -2.36 4 -1 4 C-0.67 2.68 -0.34 1.36 0 0 Z " fill="#129CA1" transform="translate(86,72)"/>
<path d="M0 0 C4 4.625 4 4.625 4 8 C0.06326356 6.68775452 -2.22719294 5.08089673 -5 2 C-3.35 2 -1.7 2 0 2 C0 1.34 0 0.68 0 0 Z " fill="#219E9D" transform="translate(37,74)"/>
<path d="M0 0 C0.33 0 0.66 0 1 0 C1 5.94 1 11.88 1 18 C2.32 18.33 3.64 18.66 5 19 C3.02 19.66 1.04 20.32 -1 21 C-1.33 20.34 -1.66 19.68 -2 19 C-1.34 19 -0.68 19 0 19 C0 12.73 0 6.46 0 0 Z " fill="#CF6238" transform="translate(60,39)"/>
<path d="M0 0 C0 0.66 0 1.32 0 2 C-0.66 2 -1.32 2 -2 2 C-2 9.26 -2 16.52 -2 24 C-2.33 24 -2.66 24 -3 24 C-3 16.74 -3 9.48 -3 2 C-3.66 1.67 -4.32 1.34 -5 1 C-3 0 -3 0 0 0 Z " fill="#58736D" transform="translate(63,14)"/>
<path d="M0 0 C2.4375 0.6875 2.4375 0.6875 5 2 C5.8125 4.625 5.8125 4.625 6 7 C5.01 7.33 4.02 7.66 3 8 C2.67 6.35 2.34 4.7 2 3 C1.34 3 0.68 3 0 3 C0 2.01 0 1.02 0 0 Z " fill="#CC6463" transform="translate(71,76)"/>
<path d="M0 0 C2.475 0.99 2.475 0.99 5 2 C3.68 2.33 2.36 2.66 1 3 C1 8.28 1 13.56 1 19 C0.67 19 0.34 19 0 19 C0 12.73 0 6.46 0 0 Z " fill="#D15835" transform="translate(60,70)"/>
<path d="M0 0 C1.98 0.66 3.96 1.32 6 2 C4.74458443 4.51083114 3.49936512 4.87125446 1 6 C0.34 5.34 -0.32 4.68 -1 4 C-0.625 1.875 -0.625 1.875 0 0 Z " fill="#01A1A9" transform="translate(26,44)"/>
<path d="M0 0 C1.32 0.33 2.64 0.66 4 1 C4 2.32 4 3.64 4 5 C3.01 5.66 2.02 6.32 1 7 C0.01 6.67 -0.98 6.34 -2 6 C-1.34 4.02 -0.68 2.04 0 0 Z " fill="#59B3C1" transform="translate(54,35)"/>
<path d="M0 0 C0 1.98 0 3.96 0 6 C-1.65 6.66 -3.3 7.32 -5 8 C-4.74438677 5.6568787 -4.40729228 3.32156597 -4 1 C-2 0 -2 0 0 0 Z " fill="#3FC3EA" transform="translate(54,35)"/>
<path d="M0 0 C2.9719385 1.12451727 5.33440687 2.22293791 8 4 C8 4.99 8 5.98 8 7 C6.68 6.34 5.36 5.68 4 5 C4 4.34 4 3.68 4 3 C2.02 3.33 0.04 3.66 -2 4 C-2 3.34 -2 2.68 -2 2 C-1.34 2 -0.68 2 0 2 C0 1.34 0 0.68 0 0 Z " fill="#E0584C" transform="translate(88,32)"/>
<path d="M0 0 C0.66 0.33 1.32 0.66 2 1 C2 1.66 2 2.32 2 3 C-0.31 3.66 -2.62 4.32 -5 5 C-5 5.66 -5 6.32 -5 7 C-6.32 6.67 -7.64 6.34 -9 6 C-6.03 4.02 -3.06 2.04 0 0 Z " fill="#DBB04E" transform="translate(36,28)"/>
<path d="M0 0 C0.66 0.33 1.32 0.66 2 1 C-3.75 6 -3.75 6 -6 6 C-6.33 6.99 -6.66 7.98 -7 9 C-7.33 8.01 -7.66 7.02 -8 6 C-5.54080489 3.3651481 -3.42227589 1.25483449 0 0 Z " fill="#DCB346" transform="translate(56,40)"/>
<path d="M0 0 C0 0.66 0 1.32 0 2 C-6.75 6 -6.75 6 -9 6 C-9 5.34 -9 4.68 -9 4 C-8.34 4 -7.68 4 -7 4 C-7 3.34 -7 2.68 -7 2 C-4 0 -4 0 0 0 Z " fill="#1C9B9E" transform="translate(73,29)"/>
<path d="M0 0 C1.65 0.33 3.3 0.66 5 1 C2.31158141 3.25245881 0.35358125 4.88213958 -3 6 C-3 5.01 -3 4.02 -3 3 C-2.01 3 -1.02 3 0 3 C0 2.01 0 1.02 0 0 Z " fill="#E7544B" transform="translate(69,83)"/>
<path d="M0 0 C-2.97180943 1.89865603 -5.51460083 3.35455571 -9 4 C-8.67 2.68 -8.34 1.36 -8 0 C-2.25 -1.125 -2.25 -1.125 0 0 Z " fill="#5DBDC0" transform="translate(50,76)"/>
<path d="M0 0 C0 0.66 0 1.32 0 2 C-0.99 2 -1.98 2 -3 2 C-2.34 3.32 -1.68 4.64 -1 6 C-2.65 5.67 -4.3 5.34 -6 5 C-6 4.01 -6 3.02 -6 2 C-2.25 0 -2.25 0 0 0 Z " fill="#BAB66E" transform="translate(47,78)"/>
<path d="M0 0 C0 0.99 0 1.98 0 3 C-2 5 -2 5 -4.625 5.125 C-5.40875 5.08375 -6.1925 5.0425 -7 5 C-4.87219421 2.65941363 -2.88437779 1.29299694 0 0 Z " fill="#DE574F" transform="translate(51,20)"/>
<path d="M0 0 C0.66 0.33 1.32 0.66 2 1 C1.67 2.65 1.34 4.3 1 6 C-0.32 5.67 -1.64 5.34 -3 5 C-2.625 3.0625 -2.625 3.0625 -2 1 C-1.34 0.67 -0.68 0.34 0 0 Z " fill="#259296" transform="translate(26,67)"/>
<path d="" fill="#000000" transform="translate(0,0)"/>
<path d="" fill="#000000" transform="translate(0,0)"/>
<path d="" fill="#000000" transform="translate(0,0)"/>
<path d="" fill="#000000" transform="translate(0,0)"/>
<path d="" fill="#000000" transform="translate(0,0)"/>
<path d="" fill="#000000" transform="translate(0,0)"/>
<path d="" fill="#000000" transform="translate(0,0)"/>
<path d="" fill="#000000" transform="translate(0,0)"/>
<path d="" fill="#000000" transform="translate(0,0)"/>
<path d="" fill="#000000" transform="translate(0,0)"/>
<path d="" fill="#000000" transform="translate(0,0)"/>
<path d="" fill="#000000" transform="translate(0,0)"/>
<path d="" fill="#000000" transform="translate(0,0)"/>
<path d="" fill="#000000" transform="translate(0,0)"/>
<path d="" fill="#000000" transform="translate(0,0)"/>
<path d="" fill="#000000" transform="translate(0,0)"/>
<path d="" fill="#000000" transform="translate(0,0)"/>
<path d="" fill="#000000" transform="translate(0,0)"/>
<path d="" fill="#000000" transform="translate(0,0)"/>
<path d="" fill="#000000" transform="translate(0,0)"/>
<path d="" fill="#000000" transform="translate(0,0)"/>
<path d="" fill="#000000" transform="translate(0,0)"/>
<path d="" fill="#000000" transform="translate(0,0)"/>
<path d="" fill="#000000" transform="translate(0,0)"/>
<path d="" fill="#000000" transform="translate(0,0)"/>
<path d="" fill="#000000" transform="translate(0,0)"/>
<path d="" fill="#000000" transform="translate(0,0)"/>
<path d="" fill="#000000" transform="translate(0,0)"/>
<path d="" fill="#000000" transform="translate(0,0)"/>
<path d="" fill="#000000" transform="translate(0,0)"/>
<path d="" fill="#000000" transform="translate(0,0)"/>
<path d="" fill="#000000" transform="translate(0,0)"/>
<path d="" fill="#000000" transform="translate(0,0)"/>
<path d="" fill="#000000" transform="translate(0,0)"/>
<path d="" fill="#010000" transform="translate(0,0)"/>
<path d="" fill="#000000" transform="translate(0,0)"/>
<path d="" fill="#000000" transform="translate(0,0)"/>
<path d="" fill="#000000" transform="translate(0,0)"/>
<path d="" fill="#000000" transform="translate(0,0)"/>
<path d="" fill="#000000" transform="translate(0,0)"/>
<path d="" fill="#000000" transform="translate(0,0)"/>
<path d="" fill="#000000" transform="translate(0,0)"/>
<path d="" fill="#000000" transform="translate(0,0)"/>
<path d="" fill="#000000" transform="translate(0,0)"/>
<path d="" fill="#000000" transform="translate(0,0)"/>
<path d="" fill="#000000" transform="translate(0,0)"/>
<path d="" fill="#000000" transform="translate(0,0)"/>
<path d="" fill="#000000" transform="translate(0,0)"/>
<path d="" fill="#000000" transform="translate(0,0)"/>
<path d="" fill="#000000" transform="translate(0,0)"/>
<path d="" fill="#000000" transform="translate(0,0)"/>
<path d="" fill="#000000" transform="translate(0,0)"/>
<path d="" fill="#000000" transform="translate(0,0)"/>
<path d="" fill="#000000" transform="translate(0,0)"/>
<path d="" fill="#000000" transform="translate(0,0)"/>
<path d="" fill="#000000" transform="translate(0,0)"/>
<path d="" fill="#000000" transform="translate(0,0)"/>
<path d="" fill="#000000" transform="translate(0,0)"/>
<path d="" fill="#000000" transform="translate(0,0)"/>
<path d="" fill="#000000" transform="translate(0,0)"/>
<path d="" fill="#000000" transform="translate(0,0)"/>
<path d="" fill="#000000" transform="translate(0,0)"/>
<path d="" fill="#000000" transform="translate(0,0)"/>
<path d="" fill="#000000" transform="translate(0,0)"/>
<path d="" fill="#000000" transform="translate(0,0)"/>
</svg>
